<svg width="262" height="262" viewBox="0 0 262 262" fill="none" xmlns="http://www.w3.org/2000/svg">
<g filter="url(#filter0_d_1_228)">
<rect x="53.0607" y="53.0606" width="156.364" height="156.364" rx="78.1818" fill="url(#paint0_linear_1_228)"/>
</g>
<path fill-rule="evenodd" clip-rule="evenodd" d="M143.516 91.2181C144.754 89.4498 147.191 89.0201 148.959 90.2582C150.728 91.4964 151.157 93.9336 149.919 95.7019L143.584 104.75C147.699 106.064 150.502 107.482 150.502 107.482C150.502 107.482 143.65 119.269 132.027 119.269C120.404 119.269 112.146 108.284 112.146 108.284C112.146 108.284 115.074 106.415 119.415 104.812L112.517 96.591C111.129 94.9373 111.345 92.4719 112.999 91.0843C114.652 89.6968 117.118 89.9125 118.505 91.5661L127.329 102.082C127.504 102.29 127.654 102.512 127.778 102.743C128.816 102.622 129.874 102.555 130.941 102.555C132.439 102.555 133.935 102.669 135.396 102.864C135.469 102.727 135.551 102.593 135.642 102.463L143.516 91.2181ZM114.541 119.828C111.439 117.612 106.746 111.831 106.746 111.831C106.746 111.831 94.7576 121.331 94.7576 141.474C94.7576 161.618 115.483 173.741 115.483 173.741C115.483 173.741 125.386 163.741 127.816 151.064C130.247 138.387 124.221 124.311 124.221 124.311C124.221 124.311 117.642 122.043 114.541 119.828ZM147.944 119.828C151.046 117.612 155.739 111.831 155.739 111.831C155.739 111.831 167.727 121.331 167.727 141.474C167.727 161.618 147.002 173.741 147.002 173.741C147.002 173.741 137.099 163.741 134.668 151.064C132.237 138.387 138.264 124.311 138.264 124.311C138.264 124.311 144.843 122.043 147.944 119.828Z" fill="white"/>
<defs>
<filter id="filter0_d_1_228" x="0.939457" y="0.939396" width="260.606" height="260.606" filterUnits="userSpaceOnUse" color-interpolation-filters="sRGB">
<feFlood flood-opacity="0" result="BackgroundImageFix"/>
<feColorMatrix in="SourceAlpha" type="matrix" values="0 0 0 0 0 0 0 0 0 0 0 0 0 0 0 0 0 0 127 0" result="hardAlpha"/>
<feOffset/>
<feGaussianBlur stdDeviation="26.0606"/>
<feColorMatrix type="matrix" values="0 0 0 0 0.596078 0 0 0 0 0.764706 0 0 0 0 0.184314 0 0 0 0.7 0"/>
<feBlend mode="normal" in2="BackgroundImageFix" result="effect1_dropShadow_1_228"/>
<feBlend mode="normal" in="SourceGraphic" in2="effect1_dropShadow_1_228" result="shape"/>
</filter>
<linearGradient id="paint0_linear_1_228" x1="53.0607" y1="53.0606" x2="53.0607" y2="209.424" gradientUnits="userSpaceOnUse">
<stop stop-color="#92BC2C"/>
<stop offset="1" stop-color="#AFC836"/>
</linearGradient>
</defs>
</svg>
