<svg width="262" height="262" viewBox="0 0 262 262" fill="none" xmlns="http://www.w3.org/2000/svg">
<g filter="url(#filter0_d_1_176)">
<rect x="52.6061" y="53.0606" width="156.364" height="156.364" rx="78.1818" fill="url(#paint0_linear_1_176)"/>
</g>
<path fill-rule="evenodd" clip-rule="evenodd" d="M130.788 172.939C153.816 172.939 172.485 154.271 172.485 131.242C172.485 108.214 153.816 89.5454 130.788 89.5454C107.759 89.5454 89.0908 108.214 89.0908 131.242C89.0908 154.271 107.759 172.939 130.788 172.939ZM130.788 100.665C130.788 100.665 142.424 111.849 142.424 132.213C142.424 152.576 130.788 161.821 130.788 161.821C130.788 161.821 164.727 161.303 163.757 132.213C162.788 103.122 130.788 100.665 130.788 100.665Z" fill="white"/>
<defs>
<filter id="filter0_d_1_176" x="0.484867" y="0.939396" width="260.606" height="260.606" filterUnits="userSpaceOnUse" color-interpolation-filters="sRGB">
<feFlood flood-opacity="0" result="BackgroundImageFix"/>
<feColorMatrix in="SourceAlpha" type="matrix" values="0 0 0 0 0 0 0 0 0 0 0 0 0 0 0 0 0 0 127 0" result="hardAlpha"/>
<feOffset/>
<feGaussianBlur stdDeviation="26.0606"/>
<feColorMatrix type="matrix" values="0 0 0 0 0.364706 0 0 0 0 0.34902 0 0 0 0 0.415686 0 0 0 0.7 0"/>
<feBlend mode="normal" in2="BackgroundImageFix" result="effect1_dropShadow_1_176"/>
<feBlend mode="normal" in="SourceGraphic" in2="effect1_dropShadow_1_176" result="shape"/>
</filter>
<linearGradient id="paint0_linear_1_176" x1="53.6141" y1="53.0606" x2="53.6141" y2="207.408" gradientUnits="userSpaceOnUse">
<stop stop-color="#595761"/>
<stop offset="1" stop-color="#6E7587"/>
</linearGradient>
</defs>
</svg>
